<?xml version="1.0" standalone="no"?><!DOCTYPE svg PUBLIC "-//W3C//DTD SVG 1.1//EN" "http://www.w3.org/Graphics/SVG/1.1/DTD/svg11.dtd"><svg t="1568721381017" class="icon" viewBox="0 0 1024 1024" version="1.1" xmlns="http://www.w3.org/2000/svg" p-id="4184" xmlns:xlink="http://www.w3.org/1999/xlink" width="200" height="200"><defs><style type="text/css"></style></defs><path d="M511.3 513.2m-446.6 0a446.6 446.6 0 1 0 893.2 0 446.6 446.6 0 1 0-893.2 0Z" fill="#75EAE4" p-id="4185"></path><path d="M511.3 979.8c-63 0-124.1-12.3-181.6-36.7-55.6-23.5-105.5-57.1-148.3-100s-76.5-92.7-100-148.3c-24.3-57.5-36.7-118.6-36.7-181.6S57 389.1 81.4 331.6c23.5-55.6 57.1-105.5 100-148.3s92.7-76.5 148.3-100C387.3 59 448.4 46.7 511.3 46.7c63 0 124.1 12.3 181.6 36.7 55.6 23.5 105.5 57.1 148.3 100 42.8 42.8 76.5 92.7 100 148.3 24.3 57.5 36.7 118.6 36.7 181.6s-12.3 124.1-36.7 181.6c-23.5 55.6-57.1 105.5-100 148.3-42.8 42.8-92.7 76.5-148.3 100-57.5 24.3-118.6 36.6-181.6 36.6z m0-893.1c-57.6 0-113.5 11.3-166 33.5-50.8 21.5-96.4 52.2-135.6 91.4s-69.9 84.8-91.4 135.6c-22.2 52.6-33.5 108.4-33.5 166s11.3 113.5 33.5 166c21.5 50.8 52.2 96.4 91.4 135.6s84.8 69.9 135.6 91.4c52.6 22.2 108.4 33.5 166 33.5s113.5-11.3 166-33.5c50.8-21.5 96.4-52.2 135.6-91.4s69.9-84.8 91.4-135.6c22.2-52.6 33.5-108.4 33.5-166s-11.3-113.5-33.5-166c-21.5-50.8-52.2-96.4-91.4-135.6s-84.8-69.9-135.6-91.4c-52.5-22.3-108.4-33.5-166-33.5z" fill="#05C4CE" p-id="4186"></path><path d="M103.1 487.4a427.4 420.8 0 1 0 854.8 0 427.4 420.8 0 1 0-854.8 0Z" fill="#FFFFFF" p-id="4187"></path><path d="M511.3 351.5c-42.1 0-76.3-34.2-76.3-76.3 0-11 9-20 20-20s20 9 20 20c0 20 16.3 36.3 36.3 36.3s36.3-16.3 36.3-36.3c0-11 9-20 20-20s20 9 20 20c0 42.1-34.2 76.3-76.3 76.3z" fill="#05C4CE" p-id="4188"></path><path d="M226.8 296.3a53.6 28.1 0 1 0 107.2 0 53.6 28.1 0 1 0-107.2 0Z" fill="#75EAE4" p-id="4189"></path><path d="M688.7 296.3a53.6 28.1 0 1 0 107.2 0 53.6 28.1 0 1 0-107.2 0Z" fill="#75EAE4" p-id="4190"></path><path d="M511.3 979.8c-63 0-124.1-12.3-181.6-36.7-55.6-23.5-105.5-57.1-148.3-100s-76.5-92.7-100-148.3c-24.3-57.5-36.7-118.6-36.7-181.6S57 389.1 81.4 331.6c23.5-55.6 57.1-105.5 100-148.3s92.7-76.5 148.3-100C387.3 59 448.4 46.7 511.3 46.7c63 0 124.1 12.3 181.6 36.7 55.6 23.5 105.5 57.1 148.3 100 42.8 42.8 76.5 92.7 100 148.3 24.3 57.5 36.7 118.6 36.7 181.6s-12.3 124.1-36.7 181.6c-23.5 55.6-57.1 105.5-100 148.3-42.8 42.8-92.7 76.5-148.3 100-57.5 24.3-118.6 36.6-181.6 36.6z m0-893.1c-57.6 0-113.5 11.3-166 33.5-50.8 21.5-96.4 52.2-135.6 91.4s-69.9 84.8-91.4 135.6c-22.2 52.6-33.5 108.4-33.5 166s11.3 113.5 33.5 166c21.5 50.8 52.2 96.4 91.4 135.6s84.8 69.9 135.6 91.4c52.6 22.2 108.4 33.5 166 33.5s113.5-11.3 166-33.5c50.8-21.5 96.4-52.2 135.6-91.4s69.9-84.8 91.4-135.6c22.2-52.6 33.5-108.4 33.5-166s-11.3-113.5-33.5-166c-21.5-50.8-52.2-96.4-91.4-135.6s-84.8-69.9-135.6-91.4c-52.5-22.3-108.4-33.5-166-33.5z" fill="#05C4CE" p-id="4191"></path><path d="M445.1 219.2c0 16.8-28.3-4.7-63.3-4.7s-63.3 21.5-63.3 4.7 28.3-51.6 63.3-51.6 63.3 34.7 63.3 51.6zM694.2 219.2c0 16.8-28.3-4.7-63.3-4.7s-63.3 21.5-63.3 4.7 28.3-51.6 63.3-51.6c34.9 0 63.3 34.7 63.3 51.6z" fill="#05C4CE" p-id="4192"></path></svg>