<?xml version="1.0" standalone="no"?><!DOCTYPE svg PUBLIC "-//W3C//DTD SVG 1.1//EN" "http://www.w3.org/Graphics/SVG/1.1/DTD/svg11.dtd"><svg t="1568726099303" class="icon" viewBox="0 0 1024 1024" version="1.1" xmlns="http://www.w3.org/2000/svg" p-id="3641" xmlns:xlink="http://www.w3.org/1999/xlink" width="200" height="200"><defs><style type="text/css"></style></defs><path d="M721.28 199.36L1012 672a16 16 0 0 1-13.76 24.48H458.72a16 16 0 0 1-14.24-23.52l248.8-472.64a16 16 0 0 1 28-0.96z" fill="#58C6FE" p-id="3642"></path><path d="M721.28 199.36a16 16 0 0 0-14.88-7.52v505.12H998.4a16 16 0 0 0 13.6-24.96z" fill="#2DA8C4" p-id="3643"></path><path d="M717.76 195.52a16 16 0 0 0-11.52-3.68v505.12h147.68z" fill="#1F88A0" p-id="3644"></path><path d="M809.6 565.28h-60.64a16 16 0 0 1 0-32h60.64a16 16 0 0 1 0 32zM792.8 432H632a16 16 0 0 1 0-32h160.8a16 16 0 0 1 0 32zM704.8 650.4h-147.84a16 16 0 0 1 0-32h147.84a16 16 0 0 1 0 32z" fill="#FFFFFF" p-id="3645"></path><path d="M400 300.48l404.16 657.6A22.4 22.4 0 0 1 785.28 992H35.2A22.4 22.4 0 0 1 16 960l345.92-657.6a22.4 22.4 0 0 1 38.08-1.92z" fill="#58C6FE" p-id="3646"></path><path d="M400 300.48a22.08 22.08 0 0 0-20.64-10.56V992h405.92a22.4 22.4 0 0 0 19.04-34.08z" fill="#2DA8C4" p-id="3647"></path><path d="M395.36 295.04a22.24 22.24 0 0 0-16-5.12V992h205.28z" fill="#1F88A0" p-id="3648"></path><path d="M522.88 802.88h-84.32a16 16 0 0 1 0-32h84.16a16 16 0 0 1 0 32zM499.52 616.96h-224a16 16 0 0 1 0-32h224a16 16 0 1 1 0 32zM377.28 921.12H171.84a16 16 0 1 1 0-32h205.44a16 16 0 1 1 0 32z" fill="#FFFFFF" p-id="3649"></path></svg>